<svg width="24" height="23" viewBox="0 0 24 23" fill="none" xmlns="http://www.w3.org/2000/svg">
<path id="Vector" d="M21.3237 8.6803C20.565 8.6803 19.8973 8.99392 19.4066 9.48459C17.6007 8.23515 15.1676 7.43086 12.4715 7.34487L13.8726 1.03192L18.3342 2.0335C18.3342 3.12612 19.2245 4.01641 20.3171 4.01641C21.43 4.01641 22.3253 3.10083 22.3253 2.0082C22.3253 0.915579 21.435 0 20.3171 0C19.5381 0 18.8653 0.470436 18.5315 1.11286L13.6046 0.0202338C13.3567 -0.045526 13.1139 0.13152 13.0481 0.379384L11.5104 7.33981C8.83444 7.45109 6.42661 8.25539 4.61569 9.50482C4.12502 8.99392 3.43201 8.6803 2.67325 8.6803C-0.13925 8.6803 -1.05989 12.4539 1.51486 13.7438C1.42381 14.1434 1.38334 14.5683 1.38334 14.9932C1.38334 19.2322 6.15852 22.6669 12.0213 22.6669C17.9093 22.6669 22.6845 19.2322 22.6845 14.9932C22.6845 14.5683 22.6389 14.1232 22.5277 13.7236C25.0518 12.4286 24.1211 8.6803 21.3237 8.6803ZM5.59703 14.0119C5.59703 12.899 6.48732 12.0037 7.60523 12.0037C8.69786 12.0037 9.58815 12.894 9.58815 14.0119C9.58815 15.1045 8.69786 15.9948 7.60523 15.9948C6.49237 15.9999 5.59703 15.1045 5.59703 14.0119ZM16.4373 18.7415C14.596 20.5828 9.40098 20.5828 7.55971 18.7415C7.35737 18.5645 7.35737 18.2509 7.55971 18.0485C7.73675 17.8715 8.05038 17.8715 8.22742 18.0485C9.63367 19.4902 14.2976 19.5155 15.7645 18.0485C15.9416 17.8715 16.2552 17.8715 16.4322 18.0485C16.6396 18.2509 16.6396 18.5645 16.4373 18.7415ZM16.3968 15.9999C15.3042 15.9999 14.4139 15.1096 14.4139 14.017C14.4139 12.9041 15.3042 12.0088 16.3968 12.0088C17.5097 12.0088 18.405 12.899 18.405 14.017C18.4 15.1045 17.5097 15.9999 16.3968 15.9999Z" fill="#FF4500"/>
</svg>
